HIERARCHY
ROOT Base
{
  OFFSET 12.1822 -2.77335 -26.5548
  CHANNELS 6 Xposition Yposition Zposition Zrotation Xrotation Yrotation
  JOINT Hips
  {
    OFFSET 0 103.797 1.28397
    CHANNELS 6 Xposition Yposition Zposition Zrotation Xrotation Yrotation
    JOINT Spine
    {
      OFFSET 0 10.1816 0.1315
      CHANNELS 6 Xposition Yposition Zposition Zrotation Xrotation Yrotation
      JOINT Spine1
      {
        OFFSET 0 10.0835 -1.0008
        CHANNELS 6 Xposition Yposition Zposition Zrotation Xrotation Yrotation
        JOINT Spine2
        {
          OFFSET 0 9.1 -1.3734
          CHANNELS 6 Xposition Yposition Zposition Zrotation Xrotation Yrotation
          JOINT Neck1
          {
            OFFSET 0 16.6717 -2.5162
            CHANNELS 6 Xposition Yposition Zposition Zrotation Xrotation Yrotation
            JOINT Neck2
            {
              OFFSET 0 9.6179 1.685
              CHANNELS 6 Xposition Yposition Zposition Zrotation Xrotation Yrotation
              JOINT Skull
              {
                OFFSET 0 7.59293 2.585
                CHANNELS 6 Xposition Yposition Zposition Zrotation Xrotation Yrotation
                JOINT LeftEye
                {
                  OFFSET 3.0676 -1.18343 6.6986
                  CHANNELS 6 Xposition Yposition Zposition Zrotation Xrotation Yrotation
                  End Site
                  {
                    OFFSET 0 0 0
                  }
                }
                JOINT RightEye
                {
                  OFFSET -3.0676 -1.18343 6.6985
                  CHANNELS 6 Xposition Yposition Zposition Zrotation Xrotation Yrotation
                  End Site
                  {
                    OFFSET 0 0 0
                  }
                }
              }
            }
          }
          JOINT LeftShoulder
          {
            OFFSET 4.5704 10.946 -2.628
            CHANNELS 6 Xposition Yposition Zposition Zrotation Xrotation Yrotation
            JOINT LeftArm
            {
              OFFSET 10.5924 -0.5246 -2.2321
              CHANNELS 6 Xposition Yposition Zposition Zrotation Xrotation Yrotation
              JOINT LeftForeArm
              {
                OFFSET 27.8415 -0.0001 0
                CHANNELS 6 Xposition Yposition Zposition Zrotation Xrotation Yrotation
                JOINT LeftHand
                {
                  OFFSET 28.3288 0 0
                  CHANNELS 6 Xposition Yposition Zposition Zrotation Xrotation Yrotation
                  JOINT LeftHandThumb1
                  {
                    OFFSET 2.4661 -1.575 2.6824
                    CHANNELS 6 Xposition Yposition Zposition Zrotation Xrotation Yrotation
                    JOINT LeftHandThumb2
                    {
                      OFFSET 3.2298 -1.8647 1.8647
                      CHANNELS 6 Xposition Yposition Zposition Zrotation Xrotation Yrotation
                      End Site
                      {
                        OFFSET 2.6526 -1.5315 1.5315
                      }
                    }
                  }
                  JOINT LeftHandIndex1
                  {
                    OFFSET 9.1093 -0.5171 2.2601
                    CHANNELS 6 Xposition Yposition Zposition Zrotation Xrotation Yrotation
                    JOINT LeftHandIndex2
                    {
                      OFFSET 3.6764 0 0
                      CHANNELS 6 Xposition Yposition Zposition Zrotation Xrotation Yrotation
                      End Site
                      {
                        OFFSET 2.8831 0 0
                      }
                    }
                  }
                  JOINT LeftHandMiddle1
                  {
                    OFFSET 9.5334 0 0
                    CHANNELS 6 Xposition Yposition Zposition Zrotation Xrotation Yrotation
                    JOINT LeftHandMiddle2
                    {
                      OFFSET 3.6982 0 0
                      CHANNELS 6 Xposition Yposition Zposition Zrotation Xrotation Yrotation
                      End Site
                      {
                        OFFSET 2.9509 0 0
                      }
                    }
                  }
                  JOINT LeftHandRing1
                  {
                    OFFSET 9.1045 -0.0439 -1.8651
                    CHANNELS 6 Xposition Yposition Zposition Zrotation Xrotation Yrotation
                    JOINT LeftHandRing2
                    {
                      OFFSET 3.154 0 0
                      CHANNELS 6 Xposition Yposition Zposition Zrotation Xrotation Yrotation
                      End Site
                      {
                        OFFSET 2.9377 0 0
                      }
                    }
                  }
                  JOINT LeftHandPinky1
                  {
                    OFFSET 8.0778 -0.4887 -3.8061
                    CHANNELS 6 Xposition Yposition Zposition Zrotation Xrotation Yrotation
                    JOINT LeftHandPinky2
                    {
                      OFFSET 3.6 0 0
                      CHANNELS 6 Xposition Yposition Zposition Zrotation Xrotation Yrotation
                      End Site
                      {
                        OFFSET 2.1142 0 0
                      }
                    }
                  }
                }
              }
            }
          }
          JOINT RightShoulder
          {
            OFFSET -4.57 10.9462 -2.628
            CHANNELS 6 Xposition Yposition Zposition Zrotation Xrotation Yrotation
            JOINT RightArm
            {
              OFFSET -10.5928 -0.5248 -2.2321
              CHANNELS 6 Xposition Yposition Zposition Zrotation Xrotation Yrotation
              JOINT RightForeArm
              {
                OFFSET -27.8415 0 0
                CHANNELS 6 Xposition Yposition Zposition Zrotation Xrotation Yrotation
                JOINT RightHand
                {
                  OFFSET -28.3288 0 0.0001
                  CHANNELS 6 Xposition Yposition Zposition Zrotation Xrotation Yrotation
                  JOINT RightHandPinky1
                  {
                    OFFSET -8.0767 -0.4885 -3.806
                    CHANNELS 6 Xposition Yposition Zposition Zrotation Xrotation Yrotation
                    JOINT RightHandPinky2
                    {
                      OFFSET -3.6 0 0.0001
                      CHANNELS 6 Xposition Yposition Zposition Zrotation Xrotation Yrotation
                      End Site
                      {
                        OFFSET -2.1142 0 0
                      }
                    }
                  }
                  JOINT RightHandRing1
                  {
                    OFFSET -9.1036 -0.0439 -1.8651
                    CHANNELS 6 Xposition Yposition Zposition Zrotation Xrotation Yrotation
                    JOINT RightHandRing2
                    {
                      OFFSET -3.154 0 0
                      CHANNELS 6 Xposition Yposition Zposition Zrotation Xrotation Yrotation
                      End Site
                      {
                        OFFSET -2.9377 0 0
                      }
                    }
                  }
                  JOINT RightHandMiddle1
                  {
                    OFFSET -9.5325 0 0
                    CHANNELS 6 Xposition Yposition Zposition Zrotation Xrotation Yrotation
                    JOINT RightHandMiddle2
                    {
                      OFFSET -3.6982 0 0
                      CHANNELS 6 Xposition Yposition Zposition Zrotation Xrotation Yrotation
                      End Site
                      {
                        OFFSET -2.9509 0 0
                      }
                    }
                  }
                  JOINT RightHandIndex1
                  {
                    OFFSET -9.1083 -0.5168 2.2601
                    CHANNELS 6 Xposition Yposition Zposition Zrotation Xrotation Yrotation
                    JOINT RightHandIndex2
                    {
                      OFFSET -3.6764 0 0
                      CHANNELS 6 Xposition Yposition Zposition Zrotation Xrotation Yrotation
                      End Site
                      {
                        OFFSET -2.8831 0 0
                      }
                    }
                  }
                  JOINT RightHandThumb1
                  {
                    OFFSET -2.4648 -1.5727 2.6826
                    CHANNELS 6 Xposition Yposition Zposition Zrotation Xrotation Yrotation
                    JOINT RightHandThumb2
                    {
                      OFFSET -3.2298 -1.8647 1.8647
                      CHANNELS 6 Xposition Yposition Zposition Zrotation Xrotation Yrotation
                      End Site
                      {
                        OFFSET -2.6526 -1.5314 1.5314
                      }
                    }
                  }
                }
              }
            }
          }
        }
      }
    }
    JOINT LeftUpLeg
    {
      OFFSET 8.2078 -6.7517 -1.5996
      CHANNELS 6 Xposition Yposition Zposition Zrotation Xrotation Yrotation
      JOINT LeftLeg
      {
        OFFSET 0 -44.3705 0.2846
        CHANNELS 6 Xposition Yposition Zposition Zrotation Xrotation Yrotation
        JOINT LeftFoot
        {
          OFFSET 0 -44.4279 -2.9822
          CHANNELS 6 Xposition Yposition Zposition Zrotation Xrotation Yrotation
          End Site
          {
            OFFSET 0 -8.7287 10.7106
          }
        }
      }
    }
    JOINT RightUpLeg
    {
      OFFSET -8.2078 -6.7517 -1.5996
      CHANNELS 6 Xposition Yposition Zposition Zrotation Xrotation Yrotation
      JOINT RightLeg
      {
        OFFSET 0 -44.3705 0.2862
        CHANNELS 6 Xposition Yposition Zposition Zrotation Xrotation Yrotation
        JOINT RightFoot
        {
          OFFSET 0 -44.4277 -2.9838
          CHANNELS 6 Xposition Yposition Zposition Zrotation Xrotation Yrotation
          End Site
          {
            OFFSET 0 -8.7287 10.7106
          }
        }
      }
    }
  }
}
MOTION
Frames:	4
Frame Time:	0.0416667
6.85628 -2.57591 -36.2801 -0.141432 12.6599 9.27783 0 103.797 1.28397 3.97569e-016 0 1.59028e-015 -1.77636e-015 10.1816 0.1315 -0.455169 4.41804 -1.363 0 10.0835 -1.0008 2.88532 1.52022 -2.72816 -1.77636e-015 9.1 -1.3734 2.88778 1.53002 -2.73791 -3.55271e-015 16.6717 -2.5162 1.34377 -1.60263 0.343411 3.55271e-015 9.6179 1.685 1.34376 -1.60265 0.343414 3.55271e-015 7.59293 2.585 1.34377 -1.60262 0.343406 3.0676 -1.18343 6.6986 1.93815e-015 3.18055e-015 2.98177e-016 -3.0676 -1.18343 6.6985 1.93815e-015 3.18055e-015 2.98177e-016 4.5704 10.946 -2.628 4.56713 -0.0109871 -1.50325 10.5924 -0.5246 -2.2321 -45.7308 -28.8198 -39.5839 27.8415 -0.0001 7.10543e-015 -11.6229 -7.74861 -112.65 28.3288 1.42109e-014 -8.88178e-015 -14.2165 -68.3871 -19.4975 2.4661 -1.575 2.6824 6.34265 17.7132 20.0634 3.2298 -1.8647 1.8647 -0.0746159 1.2846 5.82916 9.1093 -0.5171 2.2601 -83.9402 -6.02724 9.58753 3.6764 -2.84217e-014 -1.42109e-014 -81.4843 -4.98938 5.79069 9.5334 0 1.42109e-014 -77.2687 -7.10211 4.64468 3.6982 1.42109e-014 -2.84217e-014 -65.3569 -3.41441 5.3206 9.1045 -0.0439 -1.8651 -85.2809 -8.09779 3.52985 3.154 0 2.84217e-014 -61.4177 -3.05425 5.13989 8.0778 -0.4887 -3.8061 -86.3859 -12.2377 0.597015 3.6 1.42109e-014 0 -95.537 -6.41926 5.82812 -4.57 10.9462 -2.628 3.33504 -1.77498 -10.9449 -10.5928 -0.5248 -2.2321 49.2396 -29.6508 39.6638 -27.8415 1.42109e-014 7.10543e-015 12.5848 -7.268 120.003 -28.3288 1.42109e-014 0.0001 31.7123 -57.4227 36.3509 -8.0767 -0.4885 -3.806 71.2635 -10.8382 9.01429 -3.6 0 0.0001 86.3223 -1.07701 -2.94291 -9.1036 -0.0439 -1.8651 74.769 -4.87004 1.36423 -3.154 0 -1.42109e-014 55.501 0.403922 -2.42999 -9.5325 -7.10543e-015 -1.42109e-014 68.0792 -4.1317 0.334061 -3.6982 0 1.42109e-014 62.3215 0.103312 -2.61124 -9.1083 -0.5168 2.2601 80.5534 1.05557 1.3756 -3.6764 -2.84217e-014 0 79.1426 -0.711606 -2.89612 -2.4648 -1.5727 2.6826 -10.2173 9.99307 -13.2146 -3.2298 -1.8647 1.8647 -0.857917 1.78224 -7.31923 8.2078 -6.7517 -1.5996 7.5772 -7.68196 16.8226 0 -44.3705 0.2846 1.74153 36.9452 -3.72465 0 -44.4279 -2.9822 -2.66663 12.684 -2.17518 -8.2078 -6.7517 -1.5996 -9.24008 -40.0807 -11.9991 0 -44.3705 0.2862 4.17126 42.3469 -4.85157 0 -44.4277 -2.9838 -1.32873 -7.37544 1.97142 
4.75903 -1.28139 -42.5319 -1.14587 14.6763 9.27436 0 103.797 1.28397 -7.95139e-016 -1.59028e-015 -3.18055e-015 -1.77636e-015 10.1816 0.1315 0.910061 4.30162 -0.893356 0 10.0835 -1.0008 1.60863 4.92074 -2.21055 1.77636e-015 9.1 -1.3734 1.59072 4.90582 -2.20276 1.77636e-015 16.6717 -2.5162 0.38542 -1.85494 0.562817 0 9.6179 1.685 0.385419 -1.85492 0.562816 0 7.59293 2.585 0.385448 -1.85487 0.562809 3.0676 -1.18343 6.6986 -1.98785e-016 -3.18055e-015 -0 -3.0676 -1.18343 6.6985 -1.98785e-016 -3.18055e-015 -0 4.5704 10.946 -2.628 16.4836 -0.918359 -3.93146 10.5924 -0.5246 -2.2321 -54.847 -51.0336 -52.9614 27.8415 -0.0001 1.42109e-014 -10.7363 -8.24384 -106.014 28.3288 1.42109e-014 3.55271e-015 -32.512 -75.612 -33.9289 2.4661 -1.575 2.6824 7.34342 15.7596 19.212 3.2298 -1.8647 1.8647 -0.0435214 1.33226 5.86805 9.1093 -0.5171 2.2601 -82.0054 -5.78409 8.47674 3.6764 0 0 -81.0618 -4.9467 5.78421 9.5334 7.10543e-015 0 -75.9193 -7.12221 3.49481 3.6982 1.42109e-014 0 -65.4207 -3.42038 5.32324 9.1045 -0.0439 -1.8651 -84.4301 -8.18636 2.29513 3.154 -1.42109e-014 0 -61.7189 -3.08144 5.15441 8.0778 -0.4887 -3.8061 -86.2341 -11.4868 -1.08327 3.6 -1.42109e-014 -1.42109e-014 -95.6414 -6.42983 5.82693 -4.57 10.9462 -2.628 -8.17149 -1.46996 -16.0815 -10.5928 -0.5248 -2.2321 69.5616 -40.7433 66.3985 -27.8415 0 0 10.9721 -8.46132 107.351 -28.3288 0 0.0001 45.9896 -67.9209 49.6137 -8.0767 -0.4885 -3.806 69.5848 -10.9805 9.13003 -3.6 0 0.0001 84.829 -1.0003 -2.937 -9.1036 -0.0439 -1.8651 74.3856 -4.73252 0.635921 -3.154 -2.84217e-014 -1.42109e-014 55.3565 0.409984 -2.42568 -9.5325 0 -1.42109e-014 69.6953 -3.93708 -2.00948 -3.6982 2.84217e-014 0 62.8107 0.0808745 -2.62271 -9.1083 -0.5168 2.2601 81.3994 1.13484 -1.68985 -3.6764 -2.84217e-014 0 80.1749 -0.763941 -2.90545 -2.4648 -1.5727 2.6826 -9.1934 11.9358 -12.9106 -3.2298 -1.8647 1.8647 -0.875178 1.79499 -7.30869 8.2078 -6.7517 -1.5996 14.5339 -24.5943 18.6901 0 -44.3705 0.2846 -0.631635 67.1594 -3.01807 -7.10543e-015 -44.4279 -2.9822 3.61398 7.42984 -3.00275 -8.2078 -6.7517 -1.5996 -5.70412 -38.8961 -8.98687 0 -44.3705 0.2862 3.44367 46.4292 -6.64266 0 -44.4277 -2.9838 -2.76768 -3.83737 2.17886 
7.19823 -2.42291 -40.4009 0.637076 12.1984 8.86305 0 103.797 1.28397 -3.97569e-016 0 -1.59028e-015 -1.77636e-015 10.1816 0.1315 -1.01271 12.2084 -1.175 1.77636e-015 10.0835 -1.0008 1.30727 4.25678 -2.61715 0 9.1 -1.3734 1.34896 4.27019 -2.54948 -1.77636e-015 16.6717 -2.5162 -0.312312 -2.33033 0.865373 0 9.6179 1.685 -0.312313 -2.33031 0.865374 0 7.59293 2.585 -0.312219 -2.33012 0.865397 3.0676 -1.18343 6.6986 7.95139e-016 0 -1.59028e-015 -3.0676 -1.18343 6.6985 7.95139e-016 0 -1.59028e-015 4.5704 10.946 -2.628 30.2107 -1.49966 -1.33739 10.5924 -0.5246 -2.2321 -53.7607 -62.5413 -47.4158 27.8415 -0.0001 1.42109e-014 -9.42805 -8.34759 -97.0475 28.3288 0 7.10543e-015 -49.2972 -76.5708 -49.2916 2.4661 -1.575 2.6824 8.46838 13.2602 18.4695 3.2298 -1.8647 1.8647 -0.00933592 1.3844 5.91 9.1093 -0.5171 2.2601 -79.7568 -5.73048 7.48499 3.6764 0 -1.42109e-014 -82.5093 -5.09305 5.80531 9.5334 -1.42109e-014 -1.42109e-014 -74.3094 -7.05921 2.71293 3.6982 0 -2.84217e-014 -67.0678 -3.57458 5.39123 9.1045 -0.0439 -1.8651 -83.4825 -8.16251 1.77562 3.154 1.42109e-014 0 -63.0375 -3.20084 5.21719 8.0778 -0.4887 -3.8061 -85.8749 -11.3102 -1.40806 3.6 0 0 -96.0014 -6.46632 5.82337 -4.57 10.9462 -2.628 -25.8975 0.60442 -20.637 -10.5928 -0.5248 -2.2321 85.5927 -44.1334 75.298 -27.8415 1.42109e-014 0 9.05483 -8.3724 94.4876 -28.3288 0 0.0001 43.3094 -69.611 48.1275 -8.0767 -0.4885 -3.806 71.0234 -11.2792 10.0267 -3.6 2.84217e-014 0.0001 85.0381 -1.01105 -2.93789 -9.1036 -0.0439 -1.8651 75.8203 -4.84322 0.538207 -3.154 0 1.42109e-014 56.3223 0.368841 -2.45361 -9.5325 -1.42109e-014 0 71.9414 -4.03405 -2.72689 -3.6982 5.68434e-014 0 63.8748 0.031955 -2.64738 -9.1083 -0.5168 2.2601 82.0707 1.24056 -4.07012 -3.6764 0 1.42109e-014 81.0512 -0.808437 -2.91301 -2.4648 -1.5727 2.6826 -8.10721 12.1057 -11.8583 -3.2298 -1.8647 1.8647 -0.894186 1.80842 -7.29592 8.2078 -6.7517 -1.5996 18.3601 -33.2768 20.0387 0 -44.3705 0.2846 74.9706 88.8726 -73.0293 0 -44.4279 -2.9822 8.8706 2.02249 -1.88533 -8.2078 -6.7517 -1.5996 -5.44086 -32.4019 -8.43228 0 -44.3705 0.2862 2.12493 45.2012 -6.90236 -4.44089e-016 -44.4277 -2.9838 -4.38575 -9.7967 2.0689 
11.6212 -2.15498 -41.013 3.58774 12.1272 8.12564 0 103.797 1.28397 -4.41391e-032 1.59028e-015 1.59028e-015 0 10.1816 0.1315 -6.37586 16.0096 -0.610838 0 10.0835 -1.0008 1.0824 2.05449 -2.58276 -4.44089e-016 9.1 -1.3734 1.17189 2.11003 -2.55525 8.88178e-016 16.6717 -2.5162 0.187225 -2.58189 0.881864 -8.88178e-016 9.6179 1.685 0.18723 -2.58193 0.881861 -8.88178e-016 7.59293 2.585 0.187231 -2.58189 0.881843 3.0676 -1.18343 6.6986 -3.97569e-016 3.18055e-015 -7.95139e-016 -3.0676 -1.18343 6.6985 -3.97569e-016 3.18055e-015 -7.95139e-016 4.5704 10.946 -2.628 30.7453 -1.93038 -2.89199 10.5924 -0.5246 -2.2321 -37.4392 -59.2046 -31.1521 27.8415 -0.0001 -7.10543e-015 -9.14601 -8.36709 -95.1113 28.3288 1.42109e-014 7.10543e-015 -50.8488 -76.3563 -50.2178 2.4661 -1.575 2.6824 8.07135 13.6132 17.8651 3.2298 -1.8647 1.8647 0.0278524 1.44144 5.956 9.1093 -0.5171 2.2601 -77.7441 -5.45169 7.33737 3.6764 0 0 -81.7125 -5.01242 5.79419 9.5334 0 -2.84217e-014 -73.1702 -6.91298 2.87121 3.6982 0 -2.84217e-014 -66.6687 -3.53697 5.37525 9.1045 -0.0439 -1.8651 -82.9232 -8.05178 2.15647 3.154 0 1.42109e-014 -62.7237 -3.17227 5.20254 8.0778 -0.4887 -3.8061 -85.689 -11.596 -0.679883 3.6 0 0 -95.1939 -6.38444 5.83142 -4.57 10.9462 -2.628 -27.5274 0.165327 -18.1411 -10.5928 -0.5248 -2.2321 71.8472 -47.4611 60.8758 -27.8415 0 -1.42109e-014 8.63094 -8.39686 91.5807 -28.3288 -1.42109e-014 0.0001 34.283 -65.9064 40.3131 -8.0767 -0.4885 -3.806 71.0447 -12.3878 9.24202 -3.6 0 0.0001 84.5781 -0.987444 -2.93571 -9.1036 -0.0439 -1.8651 75.3435 -4.76975 0.310943 -3.154 0 -1.42109e-014 56.1939 0.374354 -2.44997 -9.5325 -1.42109e-014 1.42109e-014 69.7781 -3.81949 -2.88307 -3.6982 0 -1.42109e-014 63.4858 0.0498998 -2.63849 -9.1083 -0.5168 2.2601 80.7927 1.48222 -3.57646 -3.6764 0 0 79.8944 -0.749684 -2.90308 -2.4648 -1.5727 2.6826 -7.81804 11.9363 -11.9031 -3.2298 -1.8647 1.8647 -0.914942 1.82328 -7.28229 8.2078 -6.7517 -1.5996 19.4513 -38.8607 22.925 7.10543e-015 -44.3705 0.2846 164.068 85.0625 -159.34 0 -44.4279 -2.9822 11.4063 -0.00995087 -1.65449 -8.2078 -6.7517 -1.5996 -7.61465 -31.0187 -9.97448 2.22045e-016 -44.3705 0.2862 0.784355 42.7985 -6.44035 8.88178e-016 -44.4277 -2.9838 -6.47294 -16.5135 1.73659 
